<svg xmlns:xlink="http://www.w3.org/1999/xlink" xmlns="http://www.w3.org/2000/svg" version="1.1" height="48" width="48" y="0" x="0"><defs><linearGradient id="color-1" gradientUnits="userSpaceOnUse" y2="60.03705" x2="60.71181" y1="9.17615" x1="8.50139"><stop stop-opacity="0.42" stop-color="#000000" offset="0"></stop><stop stop-opacity="0" stop-color="#000000" offset="1"></stop></linearGradient><filter id="dropshadow"><feColorMatrix type="matrix" values="0 0 0 0 .05  0 0 0 0 .15  0 0 0 0 .1  0 0 0 .8 0"></feColorMatrix> <feOffset dx="0" dy="1"></feOffset> <feGaussianBlur stdDeviation="1"></feGaussianBlur> <feComposite in="SourceGraphic"></feComposite></filter></defs><g mix-blend-mode="normal" text-anchor="start" font-size="none" font-weight="none" font-family="none" stroke-dashoffset="0" stroke-dasharray="" stroke-miterlimit="none" stroke-linejoin="miter" stroke-linecap="butt" stroke-width="none" stroke="none" fill="none"><g font-size="14" font-weight="400" font-family="&quot;Open Sans&quot;,sans-serif" stroke-miterlimit="4" stroke-width="1" stroke="none" fill="#000000"></g><path filter="url(#dropshadow)" font-size="12" font-weight="normal" font-family="sans-serif" stroke-miterlimit="10" stroke-width="1" fill="#f44336" d="M6,44c-1.10457,0 -2,-0.89543 -2,-2l0,-36c0,-1.10457 0.89543,-2 2,-2l36,0c1.10457,0 2,0.89543 2,2l0,36c0,1.10457 -0.89543,2 -2,2z"></path><path font-size="12" font-weight="normal" font-family="sans-serif" stroke-miterlimit="10" stroke-width="1" fill="url(#color-1)" d="M21.27619,23.5155l-0.00001,-0.00002l-11.87863,-11.87863l-0.89617,-2.46071l7.30279,0l0.28974,0.0393l11.60688,11.60688c0,0 2.3256,-6.48661 2.3256,-6.48661c0,0 0,0 0,0l1.42761,-3.96888l5.55767,5.55767l0.00001,-0.00002c0,0 -5.55768,-5.55768 -5.55768,-5.55768l0.27902,-0.79377l0.17305,-0.35759l0.28974,-0.0393l7.30279,0l4.50139,4.50139l0,28.32246c0,1.10457 -0.89543,2 -2,2l-17.36827,0l-5.17615,-5.17615c0,0 0.00002,0 0.00002,0l-0.87116,-2.38132l-0.00003,-0.00003l-1.70663,-4.60391l-0.00001,-0.00001l-5.75889,-15.55809l-1.72133,-4.64363z"></path><path font-size="14" font-weight="400" font-family="&quot;Open Sans&quot;,sans-serif" stroke-miterlimit="4" stroke-width="0" stroke="#000000" fill="#ffffff" d="M15.80419,9.17615l0.28973,0.03929l0.17304,0.3576l0.28378,0.79378l1.42405,3.9689l3.95383,10.99386l1.27005,3.53232l0.82117,2.22258l0.74179,-2.06383l1.50819,-4.20704l3.75658,-10.4779l1.42762,-3.9689l0.27901,-0.79378l0.17304,-0.3576l0.28973,-0.03929l7.3028,0l-0.38022,1.0716l-0.63503,1.70663l-1.70663,4.60393l-5.27231,14.24836l-1.96977,5.31833l-0.99024,2.69885l-9.08882,0l-0.87118,-2.38134l-1.70663,-4.60393l-5.7589,-15.55809l-1.72132,-4.64362l-0.89618,-2.46072z"></path></g></svg>